<?xml version="1.0" encoding="UTF-8"?>
<svg version="1.1" viewBox="0 0 2048 874" width="1280" height="1280" xmlns="http://www.w3.org/2000/svg">
<path transform="translate(1984,20)" d="m0 0 1 2-7 9-6 5-8 10h-2l-2 4-10 10-7 8-10 10-6 8-18 18-7 8-14 15-7 8-5 5-11 12-7 8-5 6-5 5-6 5-7 8-9 10-6 7-5 5-11 12-5 6h-2l-2 4-5 6-15 15-5 6h-2l-2 4-7 7-7 8-12 13-1 2h-2l-1 3-5 4-3 5h8l11 2 36 3 8 2 14 1 3 1 12 1 5 2 10 1 13 3 9 1 5 2 19 4 20 6 19 5 19 7 13 4 19 7 15 7 15 5 14 8 5 5v12l-5 22-3 11-4 17-4 13-3 9-3 12-7 27-7 21-5 20-5 16-2 5-1 7-4 10-6 22-4 11-7 26-4 13-3 8-3 9-3 13-4 11-4 14-3 8-6 21-4 11-5 16-3 13-3 6-3 10-8 24-8 15-5 4-2 1h-28l-3-1-21-2-6-1-18-1-15-2-17-1-7-1-27-1-4-1-43-1-10-1-70-2h-21l-71 2-8 1-20 1-3 1-14 1-30 6-21 4-20 5-19 6-7 3-13 4-2-1 13-11 8-6 14-9 19-12 17-8 15-7 13-5 13-6 19-6 12-3 8-3 20-5 11-3 40-7 16-3 14-2 4-1 18-1 3-1 19-1 7-1 21-1 21-2 27-1 9-1 63-1 13-4 2-3h2l2-5 4-11 5-22 5-13 4-15 9-30 3-11 3-8 3-13 4-13 5-15 6-22 3-9 4-13 6-21 6-18 2-9 3-9 3-12 6-22 3-9 2-10-1-5-5-3-27-9-19-5-9-2-1-1-15-3-15-4-12-2-21-5-13-3-10-1-13-3-23-4-7-2-27-4-4-1-15-1-4-1-17-1-5-1-32-1-9-2h-112l-16 2-31 1-6 1-18 1-4 1-19 1-8 2-12 1-2 1-17 1-5 2-25 3-8 2-11 1-2 1-12 1-2 1-13 2-24 5-2 1h-7l1-3 18-8 13-6 11-4 8-4 13-5 33-12 31-10 5-2 24-6 3-2 39-9 8-2 26-6 22-3 3-1 11-1 7-2 15-2 45-5 17-1 11-2h12l-4-9-6-10-6-11-10-17-6-11-8-14-13-23-6-11-10-17-13-23-9-16-7-12-6-11-6-9-3-7-3-5 1-3 10 11 5 6v2h2l6 8 5 5 8 10 9 10 7 8 9 11 10 11 9 12 9 10 7 8 1 3h2l9 11 8 9 8 10 21 24 6 8 6 6h5l10-9 11-9 12-10h2v-2l14-11 10-9 6-4 5-5 20-16 11-9 12-11 6-4 14-12 3-1v-2h2v-2l11-8 10-9 5-3 5-5 14-11 7-6h2v-2l11-9 17-14 15-13 16-13 11-9 9-7 4-4 20-16 8-7z" fill="#FB2443"/>
<path transform="translate(528,473)" d="m0 0h74l4 5 1 87 11-12 8-10 11-13 9-11 12-14 9-11 11-13 7-8h92l1 6-9 11-11 12-9 11-13 14-9 11-4 5-5 5-11 12-6 7-1 5 6 11 15 24 14 22 12 19 21 33 12 19v5l-1 1h-83l-6-2-15-27-14-24-10-18-5-8v-2l-7 3-17 14-14 11-1 2-1 48-4 3h-67l-7-2z" fill="#FDFDFD"/>
<path transform="translate(344,469)" d="m0 0h40l15 2 20 5 13 5 14 8 11 9 11 11 11 18 7 17 3 12 3 28v10l-3 29-5 17-8 16-9 14-13 13-10 7-15 8-18 6-20 4-9 1h-35l-25-4-16-5-9-4-13-7-9-7-9-8-10-13-8-16-6-17-3-18-1-12v-18l2-20 4-17 7-18 7-11 7-9 11-11 15-10 16-7 17-5zm11 57-13 4-9 6-9 10-5 12-2 9v43l3 13 5 10 9 10 10 6 12 3h17l12-3 10-6 8-8 6-12 3-13v-42l-3-14-6-11-7-8-10-6-10-3z" fill="#FDFDFD"/>
<path transform="translate(1114,468)" d="m0 0h137l15 2 16 6 11 7 10 9 9 11 7 16 4 13 1 9v18l-2 14-7 19-7 11-9 10-10 8-14 7-15 4-68 1-3 2-1 70-2 5-2 1h-72l-3-2-1-3v-233l3-4zm78 58-3 1-1 2v43l3 3h32l10-3 5-4 4-8 1-5v-9l-2-9-7-8-5-2-8-1z" fill="#FC2443"/>
<path transform="translate(1605,467)" d="m0 0h76l4 4 6 18 16 52 8 28 7 23 9 30h3l5-15 8-28 8-26 5-15 7-25 6-19 7-22 5-5h72l3 2v8l-10 29-6 17-9 25-6 17-12 33-7 21-10 27-7 21-14 38-3 4-7 1-82-1-4-5-10-28-7-20-10-28-9-26-7-19-8-22-8-23-11-30-10-29-2-9z" fill="#FC2443"/>
<path transform="translate(1350,466)" d="m0 0h233l3 4v54l-1 3-3 2-73 1-1 1-1 37v135l-5 5h-71l-4-3-1-173-2-2-73-1-4-4v-56z" fill="#FC2443"/>
<path transform="translate(29,473)" d="m0 0h74l1 6 1 164 1 1 116 1 1 5v54l-3 2h-188l-3-1-1-2v-223z" fill="#FDFBFB"/>
<path transform="translate(977,466)" d="m0 0h74l3 3v237l-3 3-9 1h-49l-16-1-3-3v-237z" fill="#FC2443"/>
<path transform="translate(1984,20)" d="m0 0 1 2-7 9-6 5-8 10h-2l-2 4-10 10-7 8-10 10-6 8-18 18-7 8-14 15-7 8-5 5-11 12-7 8-5 6-5 5-6 5-7 8-9 10-6 7-5 5-11 12-5 6h-2l-2 4-5 6-15 15-5 6h-2l-2 4-7 7-7 8-12 13-1 2h-2l-1 3-5 4-3 5h8l11 2 36 3 8 2 14 1 3 1 12 1 5 2 10 1 13 3 9 1 5 2 19 4 20 6 19 5 19 7 13 4 19 7 15 7 15 5 14 8 5 5v12l-5 22-3 11-4 17-4 13-3 9-3 12-7 27-7 21-5 20-5 16-2 5-1 7-4 10-6 22-4 11-7 26-4 13-3 8-3 9-3 13-4 11-4 14-3 8-6 21-4 11-5 16-3 13-3 6-3 10-8 24-8 15-5 4-2 1h-28l-3-1-21-2-6-1-18-1-15-2-17-1-7-1-27-1-4-1-43-1-10-1-70-2h-21l-71 2-8 1-20 1-3 1-14 1-30 6-21 4-20 5-19 6-7 3-13 4-2-1 13-11 8-6 14-9 19-12 17-8 15-7 13-5 13-6 19-6 12-3 8-3 20-5 11-3 40-7 16-3 14-2 4-1 18-1 3-1 19-1 7-1 21-1 21-2 27-1 9-1 63-1 13-4 2-3h2l2-5 4-11 5-22 5-13 4-15 9-30 3-11 3-8 3-13 4-13 5-15 6-22 3-9 4-13 6-21 6-18 2-9 3-9 3-12 6-22 3-9 2-10-1-5-5-3-27-9-19-5-9-2-1-1-15-3-15-4-12-2-21-5-13-3-10-1-13-3-23-4-7-2-27-4-4-1-15-1-4-1-17-1-5-1-32-1-9-2h-112l-16 2-31 1-6 1-18 1-4 1-19 1-8 2-12 1-2 1-17 1-5 2-25 3-8 2-11 1-2 1-12 1-2 1-13 2-24 5-2 1h-7l1-3 18-8 13-6 11-4 8-4 13-5 33-12 31-10 5-2 24-6 3-2 39-9 8-2 26-6 22-3 3-1 11-1 7-2 15-2 45-5 17-1 11-2h12l-4-9-6-10-6-11-10-17-6-11-8-14-13-23-6-11-10-17-13-23-9-16-7-12-6-11-6-9-3-7-3-5 1-3 10 11 5 6v2h2l6 8 5 5 8 10 9 10 7 8 9 11 10 11 9 12 9 10 7 8 1 3h2l9 11 8 9 8 10 21 24 6 8 6 6h5l10-9 11-9 12-10h2v-2l14-11 10-9 6-4 5-5 20-16 11-9 12-11 6-4 14-12 3-1v-2h2v-2l11-8 10-9 5-3 5-5 14-11 7-6h2v-2l11-9 17-14 15-13 16-13 11-9 9-7 4-4 20-16 8-7zm-53 49-5 3-1 3 1 2h-6l-2 1v2l-5 2-3 6-9 5-3 6v2h-6l1 2h-4v4l-6 1-7 6-6 5-5 3v3l-4 1v2h-2l-4 4-8 4-3 3v2l-3 1-4 5-8 7-6 4v3l-4 1-5 3-3 5-4 2-1 3-5 2v2l-7 2v2h-2l-2 4h-3v2l-4 2-5 5-7 5v2h-4v2l-4 2-1 4-5 1-2 5-6 2-1 1v5l-5 1-6 2-9 7v2l-3 1v4l-8 4-4 3v2l-4 1-3 3-1 5-1 1-3-1-8 6-6 4-3 4v2l-11 3v1l-9-1-2-1-1-8-8-8-2-5-4-2-1-2h-3l-2-4-5-7v-2h-2v-2h-2l-2-4-3-1-1-4-5-5h-2l-2-5-1-2h-2l-1-4-5-3-3-7-5-5-3-1v-2l-6-4-5-8h-2l-1-5-6-4-8-10-6-9-4-1 1-3-2-3h-3l-2-4-1-3h-2v-2l-4-1-1-4h-2l-1-5-4-1 1 7 4 4 5 10 8 10 2 6 5 8 3 7 5 10 4 5 4 8 4 2 1 4 3 10 5 7 4 9 3 4 1 3h2l1 5 3 3 4 8 3 5 4 8 3 3 3 9 3 3v-2l4 1v9l3 4-2 4-2 2h-8l-3 2-18 2-21 1h-2v2l-10-1-6 1-8 1-11 3h-2v2l-9-2-11 1-6 3-33 5-8 1-3 3-4 1-5 1-1-2-6 1 3 4-7-1-5 2h-8l-7 2-12 3-5 3-9 2-1 1-17 3-8 2-3 2-5 1v2l-4-1-12 4-5 3-10 2-1 1-7 1-4 2v2h-6l-5 3-10 3-3 3v2l-5-1-6 2 1 3h12l2-1 17-1 6-2 16-2 10-3h11l16-3 4-1 5-1 24-1 4-2 27-1 6-2v-2l6 1 2 2 4-1 13 1 3-2 2-1h37l4-1 6 1h40l20-1 2 1 28 1 4 2 28 1 47 4 17 3 2 1 29 3 14 4 16 3 13 4 8 1 6-1 4 4 6 2 18 2 5 2 3 2 13 2 7 2 13 3h3v-2h2l1 3 32 10 8 4 1 10h4v5l-6-5-2 1-1 4v7l-3 10-1 12-3 7-2 2-4 11-2 10h-2l-2 5-2 12-3 11-2 8-1 2v4l-3 2-1 9-3 7-4 13-1 1-2 10-5 16-2 12-1 1-3 14-5 9-7 28-2 2-4 15-2 5 1 9v3l-4 4-4 15-2 13h-3l-1 8-6 9-4 2v2l-4 1v2h-5l-3 3h-53l-22 1h-36l-26 2-15 2h-12l-4 1-20 1-13 3-11 3-23 2-8 3-2 2h-14l-1 1-12 2-9 3-21 4-7 4-5 2-7 3-12 2-2 2-10 3-20 7-7 3-5 3-3 1-1 2-9 3-1 3-6 3v2h-6l-17 11v2l6 2 7-3 15-4 5-2 14-1 4-2 21-4 10-1 1-1 13-1 8-2 14 1 16-3h131l40 1 11 2h34l33 3 8 1h13l3 1 12 1 6 1h7l5 1 26 1 7 4h10l9-3 3-3 6-1 1-7-2-3 4-2v-2h2l2-9 3-5 3-15 3-3 4-15 3-10v-6l3-5 1-4 2-1 2-12 4-11 1-5 2-7 4-6v-5l1-4 3-9 2-2 2-15 3-4 3-11 1-5-1-2h2l3-6 3-13 3-9 3-8 2-9 3-10v-8l3-1 3-11v-3l1-6 2-1 2-5 3-13 3-10 3-6v-8l2-6 2-1 1-7 2-5h-2l2-9 2-5 3-2 2-10 5-19h1l4-15v-10-3l5-6-1-2 4-13 1-1 1-11 1-2v-6l-5-5-5-3-10-2-5-2-1-3h-4l-1-3-7-2-7-3-9-4-10-4-6-3-9-3h-6v-2l-5-2-28-8-6-2-10-2-9-3-9-1-4-2h-4-8l-11-3h-5v-2l-2-1h-14l-9-3-10-1-3 1v-2l-15-1-10-3h-13v2l-3-2h-14l-3 1v-2h-2l-1-3-4 1-1-3-4-2 2-4 2-3 4-3v-5h2l7-8 2-3h5v-3l3-3v-2l4-1 2-5 4-2 6-7 5-7 4-1v-2l4-2 3-5 4-4 2-4 4-1v-2h2l5-11h4l2-5 4-3v-2l5-1 5-8 4-3 1-3 5-3 2-7 4-1 3-3 6-4 1-5 2-1h3v-2h2l2-4v-3l6-4 1-3 5-2 10-14 7-4 3-5 1-4 6-2v-3h2l4-6 5-2 3-6v-2h3l1-3 6-3v-2h2l5-8 3-2v-2l5-2 1-5z" fill="#E54D60"/>
<path transform="translate(811,473)" d="m0 0h75l1 4v227l-3 2h-69l-4-2z" fill="#FDFAFA"/>
<path transform="translate(1728,301)" d="m0 0h8l11 2 36 3 8 2 14 1 3 1 12 1 5 2 10 1 13 3 9 1 5 2 19 4 20 6 19 5 19 7 13 4 19 7 15 7 15 5 14 8 5 5v12l-5 22-3 11-4 17-4 13-3 9-3 12-7 27-7 21-5 20-5 16-2 5-1 7-4 10-6 22-4 11-7 26-4 13-3 8-3 9-3 13-4 11-4 14-3 8-6 21-4 11-5 16-3 13-3 6-3 10-8 24-8 15-5 4-2 1h-28l-3-1-21-2-6-1-18-1-15-2-17-1-7-1-27-1-4-1-43-1-10-1-70-2h-21l-71 2-8 1-20 1-3 1-14 1-30 6-21 4-20 5-19 6-7 3-13 4-2-1 13-11 8-6 14-9 19-12 17-8 6-2-3 5-4 2h-3l-1 3-5 2h-4l-1 4h-2l-1 2h-2l-1 2-7 2-15 9-1 2 6 1 7-3 15-4 5-2 14-1 4-2 21-4 10-1 1-1 13-1 8-2 14 1 16-3h131l40 1 11 2h34l33 3 8 1h13l3 1 12 1 6 1h7l5 1 26 1 7 4h10l7-2h2l1-3 6-1h2v-7l-1-3 4-4h2l1-9 3-5 3-15 3-1 3-12-1-2h2l2-9 1-4v-6l3-5 2-5h2v-8l4-13 1-7h2l1-7 4-6v-6h2l-1-5 2-2 2-6 2-7 1-10 3-3 3-11 1-7h2l4-16 3-8 4-12 2-9 3-10v-6l4-5 2-9v-3l1-6 3-1 2-9 3-13 5-12v-9h2l-1-4 4-2v-7l2-4-1-1v-7l4-8 2-1 2-10 4-14 1-6 2-4 3-10v-7l1-3-2-1 3-8h3l-1-2 4-13 1-1 1-11 1-2v-6l-1-3-8-4-10-2-5-3-1-2-4-1-1-2-7-2-7-3-9-4-10-4-6-3-9-3-6-1v-2l-11-2-10-4-12-3-6-2-10-2-9-3-9-1-4-2-2 1v-2l-5 1-9-1-12-3v-2h-16l-9-3-13-1v-2l-7 1-11-2-7-2-13-1v2l-8-1h-12v-2h-2l-1-2h-4z" fill="#E55163"/>
<path transform="translate(1605,467)" d="m0 0h76l4 4 6 18 16 52 8 28 7 23 9 30h3l5-15 8-28 8-26 5-15 7-25 6-19 7-22 5-5h72l3 2v8l-10 29-6 17-9 25-6 17-12 33-7 21-10 27-7 21-14 38-3 4-7 1-82-1-4-5-10-28-7-20-10-28-9-26-7-19-8-22-8-23-11-30-10-29-2-9zm4 5-1 1 1 8 6 15 10 29 5 15 6 15 6 17 15 43 10 28 10 27 7 20 4 12 3 2h81l4-6 6-18 7-20 14-39 7-19 8-23 11-32 4-10 3-9 11-31 6-16v-8l-7-1h-56l-5 2-8 25-5 17-9 29-8 27-4 13-6 20-7 22-4 3-5-1-3-5-7-25-3-8-8-26-4-14-7-23-5-16-10-34-3-5-5-1z" fill="#E75B6C"/>
<path transform="translate(1350,466)" d="m0 0h233l3 4v54l-1 3-3 2-73 1-1 1-1 37v135l-5 5h-71l-4-3-1-173-2-2-73-1-4-4v-56zm5 4-2 2v50l3 2 70 1 4 2 2 4 1 170 3 2h57l7-2 1-14v-151l2-9 4-2 72-1 2-4v-41l-1-8-1-1z" fill="#E75A6B"/>
<path transform="translate(1114,468)" d="m0 0h137l15 2 16 6 11 7 10 9 9 11 7 16 4 13 1 9v18l-2 14-7 19-7 11-9 10-10 8-14 7-15 4-68 1-3 2-1 70-2 5-2 1h-72l-3-2-1-3v-233l3-4zm2 5-2 2-1 7v204l1 18 3 2 62-1 3-3 1-68 1-4 6-2 63-1 17-3 14-6 6-4v-2l4-2 10-10 6-11 3-6 5-19v-27l-3-13-5-12-7-12-13-13-14-8-10-3-18-3z" fill="#E75E6E"/>
<path transform="translate(977,466)" d="m0 0h74l3 3v237l-3 3-9 1h-49l-16-1-3-3v-237zm4 4-2 5v226l2 3 6 1 60-1 2-3v-228l-2-3z" fill="#E75D6E"/>
<path transform="translate(1191,521)" d="m0 0h13l26 1 9 4 7 10 2 6v16l-3 9-7 8-9 4-6 1h-33l-6-4-2-4-1-40 2-7 4-3zm1 5-3 1-1 2v43l3 3h32l10-3 5-4 4-8 1-5v-9l-2-9-7-8-5-2-8-1z" fill="#E65769"/>
<path transform="translate(774,476)" d="m0 0 4 1-2 5-12 13-9 11-11 12-7 8-12 14-18 20-6 7-1 5 6 11 15 24 14 22 12 19 21 33 11 17v5l-5-5-11-18-15-24-16-26-12-19-16-26-10-16 2-4 10-11 9-11 11-12 9-11 13-14 9-11 11-12z" fill="#E65567"/>
<path transform="translate(440,487)" d="m0 0 4 1 11 8 13 13 11 18 7 17 3 12 3 28v10l-3 29-5 17-8 16-9 14-13 13-10 7-15 8-7 1 3-2 14-7 11-8 11-10 10-14 7-14 5-15 3-15 1-9v-33l-3-19-5-17-8-17-9-12-6-7-11-9z" fill="#E75E6F"/>
<path transform="translate(641,620)" d="m0 0 3 1 1 3-12 9-11 9-14 11-1 2-1 48-4 3h-67v-2h67v-51l11-10 14-11z" fill="#E65768"/>
<path transform="translate(603,476)" d="m0 0h2l1 2v89l-2 4h-2v-94z" fill="#E96B7A"/>
<path transform="translate(702,581)" d="m0 0h3l12 20 13 20 15 24 11 17 12 19 11 17v5l-5-5-11-18-15-24-16-26-12-19-16-26z" fill="#E86675"/>
<path transform="translate(345,527)" d="m0 0 3 1-13 7-7 7-6 10-3 9-1 6v43l3 13 5 10 9 10 4 4-5-2-9-8-6-10-4-14-1-8v-32l2-13 5-13 6-9 11-8z" fill="#E96E7D"/>
<path transform="translate(469,663)" d="m0 0 1 3-9 10-7 7-10 7-15 8-7 1 3-2 14-7 11-8 11-10 7-8z" fill="#E75E6F"/>
<path transform="translate(702,581)" d="m0 0h3l12 20 13 20 4 6v2l-4-2-26-42z" fill="#E96D7C"/>
<path transform="translate(345,527)" d="m0 0 3 1-13 7-7 7-6 10-3 9-1 6-2-3 1-8 7-14 5-6 11-7z" fill="#E96777"/>
<path transform="translate(452,680)" d="m0 0m-1 1m-1 1m-1 1 1 3-13 8-11 5-4-1 9-4 11-6z" fill="#E86777"/>
<path transform="translate(702,581)" d="m0 0h3l9 15h-3l-9-14z" fill="#E96A79"/>
<path transform="translate(1984,20)" d="m0 0 1 2-7 9-1-2 1-2-4 1 5-5z" fill="#F7D0D5"/>
<path transform="translate(1933,430)" d="m0 0h2v7h-6l1-5z" fill="#E33D51"/>
<path transform="translate(320,551)" d="m0 0 1 4-3 12-2-3 1-8z" fill="#EA7180"/>
<path transform="translate(345,527)" d="m0 0 3 1-13 7-2 1 2-4z" fill="#EA7280"/>
<path transform="translate(1783,205)" d="m0 0 4 1v4l-4 1-1-5z" fill="#E33D51"/>
<path transform="translate(1951,562)" d="m0 0 3 1v6l-4-1-1-4z" fill="#E33D51"/>
<path transform="translate(326,541)" d="m0 0 1 3-5 8-2-1 2-6z" fill="#E86272"/>
</svg>
